# xmcd
#
# Track frame offsets: 
#        150
#        24500
#        40217
#        55682
#        73690
#
# Disc length: 1197 seconds
#
# Revision: 0
# Processed by: cddbd v1.5.2PL0 Copyright (c) Steve Scherf et al.
# Submitted via: ExactAudioCopy v1.0b1
#
DISCID=3b04ab05
DTITLE=Muddy Waters - Muddy Watersin Elämä Ja Teot
DYEAR=2004
DGENRE=Blues
TTITLE0=Mannish Boy
TTITLE1=I Cant't Be Satisfied
TTITLE2=I'm Ready
TTITLE3=I'm Your Hoochie Coochie Man
TTITLE4=The Blues Had A Baby And They Named It Rock And Roll
EXTD=
EXTT0=
EXTT1=
EXTT2=
EXTT3=
EXTT4=
PLAYORDER=
